<?xml version="1.0" encoding="UTF-8"?>
<!DOCTYPE svg PUBLIC "-//W3C//DTD SVG 1.1//EN" "http://www.w3.org/Graphics/SVG/1.1/DTD/svg11.dtd">
<!-- Creator: CorelDRAW (Deneme Sürümü) -->
<svg xmlns="http://www.w3.org/2000/svg" xml:space="preserve" width="297mm" height="170mm" version="1.1" style="shape-rendering:geometricPrecision; text-rendering:geometricPrecision; image-rendering:optimizeQuality; fill-rule:evenodd; clip-rule:evenodd"
viewBox="0 0 29700 17000"
 xmlns:xlink="http://www.w3.org/1999/xlink"
 xmlns:xodm="http://www.corel.com/coreldraw/odm/2003">
 <defs>
  <style type="text/css">
   <![CDATA[
    .str0 {stroke:#1C1C1C;stroke-width:500;stroke-miterlimit:22.9256}
    .fil2 {fill:none;fill-rule:nonzero}
    .fil0 {fill:#1C1C1C}
    .fil1 {fill:#1C1C1C;fill-rule:nonzero}
   ]]>
  </style>
 </defs>
 <g id="Katman_x0020_1">
  <metadata id="CorelCorpID_0Corel-Layer"/>
  <g id="_2032247639088">
   <path class="fil0" d="M23827.3 5179.11l5237.61 0 100.72 1957.44 -181.3 0c-282.02,-665.64 -577.51,-1122.05 -886.39,-1369.2 -308.87,-247.16 -762.15,-370.73 -1359.76,-370.73l-352.53 -0.02 0 3054.81 342.48 0c315.61,0 580.82,-116.98 795.69,-350.95 214.92,-233.99 365.96,-548.68 453.25,-944.12l151.08 -0.01 0 2926.26 -171.18 0c-120.9,-494.3 -283.76,-846.88 -488.55,-1057.78 -204.76,-210.93 -485.16,-316.36 -841.04,-316.36l-241.73 0 0 3173.43 382.8 0c617.76,0 1143.15,-181.25 1576.25,-543.74 433.16,-362.5 730.24,-827.13 891.4,-1393.93l201.48 -0.01 -80.58 2155.14 -5529.7 0 0 -217.46 594.29 0 0 -6485.28 -594.29 0 0 -217.49z"/>
   <polygon class="fil0" points="22707.92,5366.94 22707.92,12099.34 21297.78,12099.34 17842.98,5703.08 17842.98,11911.52 18396.96,11911.52 18396.96,12099.34 17017.06,12099.34 17017.06,11911.52 17571.03,11911.52 17571.03,5366.94 17017.06,5366.94 17017.06,5179.11 19797.03,5179.11 22435.97,10141.9 22435.97,5366.94 21882,5366.94 21882,5179.11 23261.89,5179.11 23261.89,5366.94 "/>
   <path class="fil0" d="M13353.34 12198.23c-1121.37,0 -1959.06,-298.23 -2513.04,-894.69 -553.95,-596.46 -830.96,-1459.84 -830.96,-2590.15 0.01,-1130.3 297.13,-2020.05 891.39,-2669.23 594.27,-649.2 1435.29,-973.78 2523.11,-973.78 1087.82,-0.01 1908.7,308.12 2462.67,924.34 553.99,616.22 830.97,1491.16 830.97,2624.76 0,1133.58 -280.35,2013.45 -841.04,2639.58 -560.68,626.09 -1401.73,939.17 -2523.1,939.17zm1289.27 -3153.66l0 -731.56c0,-1206.1 -60.45,-1967.32 -181.33,-2283.67 -134.28,-362.51 -325.66,-586.58 -574.12,-672.26 -140.99,-52.75 -312.24,-79.09 -513.69,-79.09 -201.43,0 -374.34,26.35 -518.71,79.09 -144.37,52.7 -263.57,144.99 -357.57,276.81 -94.01,131.8 -169.55,270.22 -226.62,415.22 -57.07,144.99 -102.41,349.3 -135.98,612.93 -40.26,382.26 -60.43,945.76 -60.43,1690.52l0.01 711.76c0,804.08 31.88,1375.84 95.67,1715.25 63.8,339.42 142.69,581.64 236.71,726.64 208.16,322.93 530.47,484.41 966.92,484.41 530.5,-0.01 874.62,-219.15 1032.41,-657.43 157.81,-438.28 236.7,-1201.15 236.73,-2288.62z"/>
   <path class="fil0" d="M7342.79 5268.08c-1040.81,0 -1561.22,985.34 -1561.22,2955.95l0 780.98c0,935.88 137.65,1669.12 412.96,2199.67 275.32,530.52 681.56,795.83 1218.75,795.83 738.64,-0.02 1416.83,-705.2 2034.59,-2115.62l181.32 0 -70.52 2204.57 -110.78 0c-40.29,-72.49 -77.23,-123.56 -110.81,-153.21 -33.56,-29.67 -82.25,-44.49 -146.04,-44.49 -63.79,0 -307.21,51.07 -730.25,153.23 -423.02,102.15 -852.78,153.24 -1289.24,153.24 -1094.53,0 -1942.28,-289.99 -2543.26,-869.97 -600.98,-580 -901.47,-1451.6 -901.47,-2614.87 0.02,-1163.27 313.92,-2061.23 941.76,-2693.94 627.84,-632.73 1472.24,-949.07 2533.18,-949.07 409.62,-0.01 810.81,51.08 1203.63,153.24 392.85,102.13 622.8,153.23 689.95,153.23 67.17,-0.01 117.52,-14.83 151.08,-44.48 33.6,-29.68 70.51,-80.74 110.8,-153.24l110.8 -0.02 80.59 2145.27 -181.3 0c-302.18,-665.65 -612.73,-1174.77 -931.7,-1527.37 -318.95,-352.62 -683.23,-528.91 -1092.82,-528.93z"/>
   <polygon class="fil0" points="355.22,5179.11 3427.25,5179.11 3427.25,5366.94 2873.28,5366.94 2873.28,11911.52 3427.25,11911.52 3427.25,12099.34 355.22,12099.34 355.22,11911.52 909.2,11911.52 909.2,5366.94 355.22,5366.94 "/>
   <path class="fil0" d="M16773.62 347.97l2197.13 0 42.25 986.39 -76.06 0c-118.3,-335.43 -242.25,-565.42 -371.82,-689.96 -129.57,-124.55 -319.71,-186.82 -570.41,-186.82l-147.87 -0.01 0 1539.37 143.65 0c132.4,0 243.65,-58.95 333.79,-176.85 90.14,-117.92 153.52,-276.49 190.14,-475.76l63.38 0 0 1474.58 -71.83 0c-50.7,-249.09 -119.02,-426.75 -204.93,-533.03 -85.9,-106.29 -203.51,-159.42 -352.8,-159.42l-101.4 0 0 1599.14 160.55 0c259.15,0 479.56,-91.34 661.25,-274 181.68,-182.67 306.33,-416.81 373.93,-702.42l84.51 -0.01 -33.8 1086.01 -2319.66 0 0 -109.58 249.29 0 0 -3268.03 -249.29 0 0 -109.6z"/>
   <polygon class="fil0" points="13553.1,347.97 14871.36,347.97 14871.36,442.62 14626.31,442.62 14626.31,1986.98 15467.12,1986.98 15467.12,442.62 15217.84,442.62 15217.84,347.97 16540.33,347.97 16540.33,442.62 16291.05,442.62 16291.05,3740.53 16540.33,3740.53 16540.33,3835.18 15217.84,3835.18 15217.84,3740.53 15467.12,3740.53 15467.12,2116.49 14626.31,2116.49 14626.31,3740.53 14871.36,3740.53 14871.36,3835.18 13553.1,3835.18 13553.1,3740.53 13802.38,3740.53 13802.38,442.62 13553.1,442.62 "/>
   <path class="fil0" d="M13200.86 347.97l42.25 1250.42 -80.28 0c-123.94,-441.71 -233.8,-743.1 -329.57,-904.18 -95.77,-161.08 -233.8,-241.61 -414.07,-241.61l-50.7 -0.01 0 3277.98 359.14 0 0 104.61 -1542.2 0 0 -104.61 359.14 0 0 -3277.98 -54.93 0c-180.28,0 -319.71,83.87 -418.3,251.59 -98.59,167.71 -207.04,465.79 -325.34,894.22l-80.28 -0.01 42.25 -1250.42 2492.89 0z"/>
   <path class="fil1" d="M734.44 14608.22l598.1 0 0 753.25c26.89,-63.12 67.42,-113.88 121.61,-152.3 54.59,-38.76 137.32,-57.97 247.76,-57.97 256.86,0 385.09,114.57 385.09,343.7l0 619.82 139.39 0 0 37.04 -703.17 0 0 -37.04 101.76 0 0 -668.87c0,-82.33 -6.62,-135.49 -19.86,-159.16 -12.82,-24.35 -36.81,-36.36 -71.56,-36.36 -52.94,0 -99.68,28.81 -140.63,86.44 -40.12,57.62 -60.39,127.6 -60.39,209.92l0 568.03 106.72 0 0 37.04 -704.82 0 0 -37.04 136.49 0 0 -1469.46 -136.49 0 0 -37.04zm2124.39 1059.56l71.97 0 0 -158.13c0,-130.35 -8.69,-217.82 -26.06,-262.41 -17.37,-44.59 -50.88,-66.88 -100.51,-66.88 -29.79,0 -56.67,6.51 -81.08,19.89 -23.99,13.04 -35.98,30.87 -35.98,53.51 0,22.29 4.96,45.28 15.3,68.6l61.63 0c13.65,28.81 20.27,63.46 20.27,103.93 0,40.48 -20.68,75.47 -62.46,104.97 -40.95,29.5 -93.06,44.25 -155.93,44.25 -142.7,0 -213.85,-56.95 -213.85,-170.83 0,-169.1 172.9,-253.48 518.69,-253.48 197.3,0 333.38,27.78 408.66,83.7 75.7,55.56 113.34,157.44 113.34,305.27l0 418.13c0,71.35 23.57,107.02 71.14,107.02 56.67,0 89.76,-70.66 99.69,-211.98l37.22 2.06c-6.62,121.09 -33.91,204.09 -82.31,249.03 -47.57,45.28 -126.16,67.91 -235.77,67.91 -198.12,0 -312.29,-50.76 -342.07,-152.29 -21.51,52.48 -53.77,90.9 -97.2,115.59 -42.6,24.36 -105.48,36.7 -188.2,36.7 -244.87,0 -367.3,-83 -367.3,-249.36 0,-97.08 46.74,-163.62 139.81,-200.32 93.89,-36.71 237.42,-54.88 431,-54.88zm-99.28 253.48c0,71.35 4.55,117.31 13.24,137.89 9.51,20.58 26.89,30.87 52.12,30.87 26.06,0 50.05,-17.49 71.97,-52.48 22.75,-34.99 33.92,-83.35 33.92,-145.09l0 -191.4 -17.38 0c-102.58,0 -153.87,62.42 -153.87,187.28l0 32.93zm1230.96 -891.14c-87.69,0 -150.15,-18.53 -187.37,-55.23 -37.23,-37.04 -55.84,-83.01 -55.84,-137.89 0,-55.22 20.27,-100.5 60.8,-135.83 40.12,-36.02 101.75,-53.85 184.89,-53.85 82.73,0 145.6,16.12 188.2,48.36 43.43,32.25 64.94,78.21 64.94,138.24 0,59.34 -20.68,107.01 -62.45,143.03 -40.96,35.33 -105.48,53.17 -193.17,53.17zm-374.33 142l607.62 0 0 942.6 138.56 0 0 37.04 -736.67 0 0 -37.04 136.5 0 0 -905.55 -146.01 0 0 -37.05zm1625.14 57.63c-61.63,0 -115.4,32.93 -161.73,99.13 -45.91,65.51 -69.08,143.72 -69.08,234.62l0 551.22 176.21 0 0 37.04 -774.31 0 0 -37.04 136.5 0 0 -905.55 -136.5 0 0 -37.05 598.1 0 0 197.92c21.1,-69.97 62.46,-123.82 123.68,-161.9 61.22,-38.07 130.7,-56.94 208.47,-56.94 77.76,0 141.04,18.18 190.26,54.88 48.81,36.02 73.22,87.47 73.22,154.36 0,66.54 -18.2,117.65 -54.6,153.66 -36.4,35.34 -92.24,53.17 -167.93,53.17 -74.87,0 -130.3,-20.58 -165.87,-61.74 -35.57,-41.16 -40.12,-98.1 -13.23,-170.82l88.92 0c40.95,-69.97 23.58,-104.96 -52.11,-104.96zm1498.99 942.59c-213.43,0 -373.51,-45.62 -480.64,-136.51 -106.72,-91.59 -160.07,-218.5 -160.07,-381.09 0,-162.93 59.97,-287.44 179.93,-373.88 119.95,-86.44 272.58,-129.66 458.3,-129.66 375.57,0 555.91,156.41 541.02,469.58l-699.86 0 0 80.27c0,134.12 20.68,235.64 61.63,304.59 41.78,68.6 113.75,102.9 216.33,102.9 191.92,0 317.67,-85.06 377.23,-255.2l44.67 5.83c-31.44,99.13 -88.1,175.97 -170.42,230.85 -81.48,54.88 -204.33,82.32 -368.12,82.32zm-158.84 -592.72l255.62 0 0 -100.5c0,-111.48 -7.85,-187.29 -23.57,-227.76 -15.72,-40.48 -47.15,-60.71 -94.72,-60.71 -46.74,0 -81.49,21.61 -104.24,64.83 -21.92,43.21 -33.09,117.65 -33.09,223.64l0 100.5zm1585.85 -34.99l293.26 -335.46 -178.68 0 0 -37.05 369.36 0 0 37.05 -129.05 0 -323.04 378.68 404.94 526.87 129.05 0 0 37.04 -828.9 0 0 -37.04 176.2 0 -272.99 -370.45 -283.34 370.45 164.21 0 0 37.04 -389.22 0 0 -37.04 163.38 0 315.18 -411.62 -376.81 -493.93 -144.36 0 0 -37.05 838.43 0 0 37.05 -173.31 0 245.69 335.46zm714.75 312.83l0 -648.29 -136.91 0 0 -37.05 136.91 0 0 -265.49 462.02 -94.32 0 359.81 322.21 0 0 37.05 -322.21 0 0 693.22c0,64.83 7.45,112.17 22.75,142.35 15.72,30.19 48.39,45.28 98.44,45.28 49.64,0 93.07,-20.58 129.88,-61.74 37.64,-41.5 62.46,-97.76 73.63,-169.11l42.19 4.81c-13.24,94.32 -49.64,169.44 -109.61,225.01 -59.15,55.57 -157.6,83.35 -294.92,83.35 -137.32,0 -242.38,-22.63 -315.19,-67.91 -72.79,-44.94 -109.19,-127.26 -109.19,-246.97zm1506.43 314.88c-213.43,0 -373.5,-45.62 -480.63,-136.51 -106.72,-91.59 -160.08,-218.5 -160.08,-381.09 0,-162.93 59.98,-287.44 179.93,-373.88 119.95,-86.44 272.58,-129.66 458.3,-129.66 375.57,0 555.91,156.41 541.02,469.58l-699.85 0 0 80.27c0,134.12 20.68,235.64 61.63,304.59 41.77,68.6 113.74,102.9 216.32,102.9 191.93,0 317.67,-85.06 377.23,-255.2l44.67 5.83c-31.43,99.13 -88.1,175.97 -170.41,230.85 -81.48,54.88 -204.33,82.32 -368.13,82.32zm-158.83 -592.72l255.62 0 0 -100.5c0,-111.48 -7.86,-187.29 -23.58,-227.76 -15.71,-40.48 -47.15,-60.71 -94.72,-60.71 -46.74,0 -81.48,21.61 -104.23,64.83 -21.92,43.21 -33.09,117.65 -33.09,223.64l0 100.5zm791.68 -407.5l598.1 0 0 189.35c26.48,-63.12 67.01,-113.88 121.61,-152.3 54.6,-38.76 137.32,-57.97 248.59,-57.97 256.03,0 383.85,114.57 383.85,343.7l0 619.82 139.39 0 0 37.04 -702.34 0 0 -37.04 102.17 0 0 -668.87c0,-82.33 -6.62,-135.49 -20.27,-159.16 -13.24,-24.35 -37.23,-36.36 -71.98,-36.36 -52.94,0 -99.68,28.81 -140.63,86.44 -40.12,57.62 -60.39,127.6 -60.39,209.92l0 568.03 106.31 0 0 37.04 -704.41 0 0 -37.04 136.08 0 0 -905.55 -136.08 0 0 -37.05zm1580.88 1000.22l0 -368.39 29.78 0c43.02,119.37 100.93,203.06 173.73,251.43 72.8,47.67 163.79,71.69 273.4,71.69 168.35,0 252.32,-44.6 252.32,-133.44 0,-38.75 -20.68,-67.57 -61.64,-86.43 -64.52,-30.53 -147.24,-54.2 -248.59,-70.32 -112.09,-24.35 -206.39,-57.28 -282.92,-98.79 -90.58,-49.39 -136.08,-127.6 -136.08,-234.62 0,-107.02 39.71,-192.43 118.71,-256.23 79.42,-64.14 185.31,-96.04 318.08,-96.04 81.07,0 164.62,16.12 250.66,48.02 31.85,10.63 55.84,16.12 72.39,16.12 16.54,0 30.6,-4.8 41.77,-14.06 11.58,-9.95 25.65,-27.79 42.19,-53.85l27.3 0 0 314.88 -29.78 0c-84.38,-178.71 -215.09,-267.89 -391.71,-267.89 -78.17,0 -136.08,11.32 -174.13,34.3 -37.64,22.98 -56.67,51.45 -56.67,85.41 0,20.24 5.79,36.36 16.96,48.36 11.58,11.67 20.68,20.24 26.89,26.07 7.03,5.15 17.78,10.98 32.26,17.5 14.89,6.17 27.3,10.97 37.64,14.06 10.34,3.43 25.64,7.89 45.91,13.72 20.68,5.15 35.98,8.58 46.33,9.95 112.09,23.67 193.16,43.9 242.79,60.71 49.64,17.15 96.8,38.08 141.05,62.77 91.41,51.8 136.91,136.18 136.91,252.46 0,115.93 -41.36,203.75 -124.09,263.09 -82.72,59.68 -196.06,89.52 -340,89.52 -102.58,0 -201.85,-19.89 -297.81,-59.68 -19.85,-11.32 -35.57,-16.81 -47.57,-16.81 -35.98,0 -71.55,25.39 -106.3,76.49l-29.78 0zm1384.82 -1142.22c-87.68,0 -150.14,-18.53 -187.37,-55.23 -37.23,-37.04 -55.84,-83.01 -55.84,-137.89 0,-55.22 20.27,-100.5 60.81,-135.83 40.12,-36.02 101.75,-53.85 184.89,-53.85 82.72,0 145.59,16.12 188.2,48.36 43.43,32.25 64.94,78.21 64.94,138.24 0,59.34 -20.69,107.01 -62.46,143.03 -40.95,35.33 -105.47,53.17 -193.17,53.17zm-374.33 142l607.62 0 0 942.6 138.57 0 0 37.04 -736.67 0 0 -37.04 136.49 0 0 -905.55 -146.01 0 0 -37.05zm1597.84 574.2l0 -174.93c0,-132.75 -8.68,-229.82 -26.06,-290.88 -17.37,-61.39 -57.49,-91.92 -120.36,-91.92 -36.4,0 -65.77,8.58 -88.1,25.72 -21.93,16.81 -38.06,45.28 -48.4,85.42 -14.89,62.08 -22.33,155.72 -22.33,281.61l0 160.87c0,149.21 5.37,239.42 15.71,269.95 10.76,30.18 21.92,54.88 33.92,73.74 18.2,32.93 53.77,49.4 106.72,49.4 64.52,0 106.71,-30.87 126.57,-92.61 14.89,-43.91 22.33,-142.7 22.33,-296.37zm-153.86 426.02c-206.82,0 -363.17,-43.9 -469.06,-131.71 -105.89,-87.81 -158.83,-213.7 -158.83,-377.31 0,-164.31 56.66,-290.54 170,-378.69 113.33,-88.84 272.58,-133.43 477.74,-133.43 205.16,0 358.2,40.82 458.71,122.8 100.92,81.63 151.39,206.15 151.39,373.19 0,350.22 -210.12,525.15 -629.95,525.15zm704.82 -1000.22l598.1 0 0 189.35c26.48,-63.12 67.01,-113.88 121.61,-152.3 54.6,-38.76 137.32,-57.97 248.59,-57.97 256.03,0 383.85,114.57 383.85,343.7l0 619.82 139.39 0 0 37.04 -702.34 0 0 -37.04 102.16 0 0 -668.87c0,-82.33 -6.61,-135.49 -20.26,-159.16 -13.24,-24.35 -37.23,-36.36 -71.98,-36.36 -52.94,0 -99.68,28.81 -140.63,86.44 -40.12,57.62 -60.39,127.6 -60.39,209.92l0 568.03 106.3 0 0 37.04 -704.4 0 0 -37.04 136.08 0 0 -905.55 -136.08 0 0 -37.05zm1580.88 1000.22l0 -368.39 29.78 0c43.02,119.37 100.92,203.06 173.73,251.43 72.79,47.67 163.79,71.69 273.4,71.69 168.35,0 252.32,-44.6 252.32,-133.44 0,-38.75 -20.68,-67.57 -61.64,-86.43 -64.52,-30.53 -147.25,-54.2 -248.59,-70.32 -112.09,-24.35 -206.39,-57.28 -282.92,-98.79 -90.58,-49.39 -136.08,-127.6 -136.08,-234.62 0,-107.02 39.71,-192.43 118.71,-256.23 79.42,-64.14 185.31,-96.04 318.08,-96.04 81.07,0 164.62,16.12 250.66,48.02 31.85,10.63 55.84,16.12 72.38,16.12 16.55,0 30.61,-4.8 41.78,-14.06 11.58,-9.95 25.64,-27.79 42.19,-53.85l27.3 0 0 314.88 -29.78 0c-84.38,-178.71 -215.09,-267.89 -391.71,-267.89 -78.17,0 -136.08,11.32 -174.13,34.3 -37.64,22.98 -56.67,51.45 -56.67,85.41 0,20.24 5.79,36.36 16.96,48.36 11.58,11.67 20.68,20.24 26.88,26.07 7.04,5.15 17.79,10.98 32.27,17.5 14.89,6.17 27.3,10.97 37.64,14.06 10.34,3.43 25.64,7.89 45.91,13.72 20.68,5.15 35.98,8.58 46.33,9.95 112.09,23.67 193.16,43.9 242.79,60.71 49.64,17.15 96.79,38.08 141.05,62.77 91.41,51.8 136.91,136.18 136.91,252.46 0,115.93 -41.36,203.75 -124.09,263.09 -82.72,59.68 -196.06,89.52 -340,89.52 -102.58,0 -201.85,-19.89 -297.81,-59.68 -19.85,-11.32 -35.57,-16.81 -47.57,-16.81 -35.98,0 -71.55,25.39 -106.3,76.49l-29.78 0zm4680.61 -574.2c0,-141.32 -8.27,-236.33 -24.82,-285.04 -16.54,-49.05 -48.81,-73.4 -96.79,-73.4 -47.57,0 -90.58,24.69 -129.05,74.43 -38.05,49.05 -57.08,116.97 -57.08,203.41l0 383.14c0,58.66 14.48,108.73 43.02,150.24 28.95,41.16 70.31,61.74 124.08,61.74 54.19,0 91,-30.19 110.86,-90.56 19.85,-60.37 29.78,-166.01 29.78,-316.94l0 -107.02zm-307.74 -989.92l0 720.66c62.87,-118.34 170.41,-177.68 323.04,-177.68 309.39,0 464.09,170.82 464.09,512.8 0,173.91 -42.6,302.19 -127.81,384.86 -85.21,82.32 -213.02,123.48 -383.84,123.48 -86.04,0 -151.81,-10.97 -197.3,-32.58 -45.92,-22.3 -76.53,-58.66 -92.66,-109.42l-17.78 121.42 -565.85 0 0 -37.04 136.5 0 0 -1469.46 -136.5 0 0 -37.04 598.11 0zm1513.88 1564.12c-213.44,0 -373.51,-45.62 -480.64,-136.51 -106.72,-91.59 -160.08,-218.5 -160.08,-381.09 0,-162.93 59.98,-287.44 179.93,-373.88 119.96,-86.44 272.58,-129.66 458.3,-129.66 375.58,0 555.92,156.41 541.03,469.58l-699.86 0 0 80.27c0,134.12 20.68,235.64 61.63,304.59 41.78,68.6 113.75,102.9 216.33,102.9 191.92,0 317.66,-85.06 377.23,-255.2l44.67 5.83c-31.44,99.13 -88.1,175.97 -170.42,230.85 -81.48,54.88 -204.33,82.32 -368.12,82.32zm-158.84 -592.72l255.62 0 0 -100.5c0,-111.48 -7.86,-187.29 -23.57,-227.76 -15.72,-40.48 -47.16,-60.71 -94.72,-60.71 -46.74,0 -81.49,21.61 -104.24,64.83 -21.92,43.21 -33.09,117.65 -33.09,223.64l0 100.5zm1382.34 88.16l71.97 0 0 -158.13c0,-130.35 -8.68,-217.82 -26.06,-262.41 -17.37,-44.59 -50.87,-66.88 -100.5,-66.88 -29.79,0 -56.67,6.51 -81.08,19.89 -23.99,13.04 -35.98,30.87 -35.98,53.51 0,22.29 4.96,45.28 15.3,68.6l61.63 0c13.65,28.81 20.27,63.46 20.27,103.93 0,40.48 -20.68,75.47 -62.46,104.97 -40.95,29.5 -93.06,44.25 -155.93,44.25 -142.71,0 -213.85,-56.95 -213.85,-170.83 0,-169.1 172.9,-253.48 518.69,-253.48 197.3,0 333.38,27.78 408.66,83.7 75.7,55.56 113.33,157.44 113.33,305.27l0 418.13c0,71.35 23.58,107.02 71.15,107.02 56.67,0 89.76,-70.66 99.68,-211.98l37.23 2.06c-6.62,121.09 -33.92,204.09 -82.31,249.03 -47.57,45.28 -126.16,67.91 -235.77,67.91 -198.13,0 -312.29,-50.76 -342.07,-152.29 -21.51,52.48 -53.77,90.9 -97.2,115.59 -42.6,24.36 -105.48,36.7 -188.2,36.7 -244.87,0 -367.3,-83 -367.3,-249.36 0,-97.08 46.74,-163.62 139.8,-200.32 93.9,-36.71 237.42,-54.88 431,-54.88zm-99.27 253.48c0,71.35 4.55,117.31 13.24,137.89 9.51,20.58 26.89,30.87 52.12,30.87 26.05,0 50.04,-17.49 71.97,-52.48 22.74,-34.99 33.91,-83.35 33.91,-145.09l0 -191.4 -17.37 0c-102.58,0 -153.87,62.42 -153.87,187.28l0 32.93zm2293.15 230.5l-565.84 0 -27.3 -150.24c-26.06,54.89 -65.35,97.08 -117.47,126.58 -52.12,29.49 -129.46,44.24 -232.04,44.24 -256.87,0 -385.09,-114.56 -385.09,-343.69l0 -619.48 -139.39 0 0 -37.05 601.41 0 0 705.92c0,82.32 6.62,136.52 20.27,162.59 14.48,26.41 42.6,39.44 84.38,39.44 42.6,0 80.24,-21.26 113.33,-64.14 33.09,-42.53 49.64,-101.53 49.64,-177.34l0 -629.42 -113.75 0 0 -37.05 575.36 0 0 942.6 136.49 0 0 37.04zm173.73 -294.3l0 -648.29 -136.91 0 0 -37.05 136.91 0 0 -265.49 462.02 -94.32 0 359.81 322.21 0 0 37.05 -322.21 0 0 693.22c0,64.83 7.44,112.17 22.75,142.35 15.71,30.19 48.39,45.28 98.44,45.28 49.64,0 93.07,-20.58 129.88,-61.74 37.64,-41.5 62.46,-97.76 73.62,-169.11l42.2 4.81c-13.24,94.32 -49.64,169.44 -109.62,225.01 -59.14,55.57 -157.59,83.35 -294.91,83.35 -137.33,0 -242.39,-22.63 -315.19,-67.91 -72.8,-44.94 -109.19,-127.26 -109.19,-246.97zm816.09 -648.29l0 -37.05 720.12 0 0 37.05 -134.02 0 270.93 683.28 287.47 -683.28 -166.28 0 0 -37.05 349.93 0 0 37.05 -124.09 0 -464.09 1109.3c-54.59,128.97 -115.81,219.18 -183.65,270.29 -67.83,51.79 -150.56,77.52 -248.59,77.52 -97.2,0 -174.14,-18.52 -230.8,-55.91 -55.84,-36.71 -83.97,-84.04 -83.97,-141.66 0,-57.63 18.2,-101.54 54.6,-131.38 35.99,-30.18 83.97,-45.28 143.94,-45.28 137.33,0 205.99,47.34 205.99,141.67 0,20.92 -4.97,45.62 -14.89,74.43l-86.86 0c-13.24,31.22 -14.89,57.29 -5.38,77.86 10.34,20.58 32.68,30.87 67.42,30.87 67.84,0 128.23,-27.78 181.17,-83.35 52.53,-55.56 102.99,-140.29 151.39,-254.17l54.6 -127.6 -218.4 0 -424.79 -942.59 -101.75 0zm-8070.29 80.26c39.3,-25.38 68.25,-52.13 86.45,-80.26 18.2,-28.13 27.3,-59.68 27.3,-94.33 0,-49.74 -14.48,-88.15 -43.43,-115.59 -29.37,-27.44 -69.91,-41.16 -122.44,-41.16 -43.84,0 -79.41,10.97 -106.3,32.58 -26.88,21.61 -40.53,50.08 -40.53,84.72 0,39.45 15.3,75.81 45.5,108.74 30.19,32.58 81.48,67.92 153.45,105.3zm210.54 597.18c-54.19,-81.29 -115.82,-155.38 -185.72,-222.27 -69.9,-66.88 -148.49,-127.6 -235.77,-181.79 -62.46,36.01 -107.96,73.75 -136.91,112.85 -29.37,39.45 -43.84,82.67 -43.84,130.34 0,80.27 30.61,148.18 91.82,203.41 60.8,55.22 136.09,83.01 225.84,83.01 52.53,0 102.17,-10.29 148.91,-31.22 46.74,-20.92 92.24,-52.13 135.67,-94.33zm54.6 100.51c-74.04,62.77 -154.7,110.1 -241.56,142 -86.86,31.9 -179.1,47.68 -277.13,47.68 -139.39,0 -252.32,-33.27 -337.93,-99.47 -85.63,-66.2 -128.65,-153.33 -128.65,-261.38 0,-84.38 34.75,-159.15 104.24,-223.98 69.49,-64.83 175.38,-121.09 317.67,-168.76 -66.18,-52.82 -114.17,-100.85 -143.53,-144.07 -29.37,-43.22 -44.26,-86.43 -44.26,-129.31 0,-79.92 40.53,-146.47 121.19,-199.98 80.66,-53.51 183.24,-80.26 307.74,-80.26 119.54,0 213.43,20.92 281.68,62.77 68.25,41.85 102.58,99.13 102.58,172.19 0,48.37 -18.61,93.3 -55.43,135.15 -36.81,41.84 -92.65,80.95 -167.51,117.31 73.21,50.76 137.73,102.21 193.57,154.01 55.84,51.79 105.89,107.02 149.32,165.33 71.56,-90.9 123.26,-163.27 154.29,-217.13 31.02,-53.51 46.73,-96.38 46.73,-128.63 0,-11.32 -8.27,-19.2 -24.4,-24.01 -16.13,-4.46 -44.26,-6.85 -84.79,-6.85l-30.2 0 2.48 -90.56 511.25 0 2.48 86.44c-58.32,0 -104.24,4.8 -138.57,14.41 -34.33,9.94 -62.45,25.38 -84.37,46.99 -0.83,0.68 -29.37,45.62 -86.04,134.46 -56.67,89.18 -120.78,177.68 -192.75,265.49l64.53 92.27c47.56,71 86.03,118.34 116.22,141.66 29.79,23.67 62.46,35.33 98.04,35.33 19.44,0 41.36,-3.77 66.17,-10.98 24.41,-7.54 52.95,-18.86 85.21,-34.3l46.33 76.5c-56.67,40.81 -114.99,71 -175.38,91.24 -59.98,20.23 -123.26,30.18 -189.44,30.18 -72.8,0 -137.74,-14.75 -194.41,-44.25 -57.08,-29.5 -115.4,-78.55 -175.37,-147.49z"/>
   <line class="fil2 str0" x1="107.41" y1="13538.42" x2="29591.53" y2= "13538.42" />
  </g>
 </g>
</svg>
